<?xml version="1.0" encoding="UTF-8" standalone="no"?>
<!-- Uploaded to: SVG Repo, www.svgrepo.com, Generator: SVG Repo Mixer Tools -->

<svg
   width="120"
   height="60"
   viewBox="0 0 19.2 9.6"
   aria-hidden="true"
   role="img"
   class="iconify iconify--noto"
   preserveAspectRatio="xMidYMid"
   version="1.1"
   id="svg45"
   sodipodi:docname="ghashboard-ar21.svg"
   inkscape:version="1.3.2 (091e20e, 2023-11-25)"
   xmlns:inkscape="http://www.inkscape.org/namespaces/inkscape"
   xmlns:sodipodi="http://sodipodi.sourceforge.net/DTD/sodipodi-0.dtd"
   xmlns="http://www.w3.org/2000/svg"
   xmlns:svg="http://www.w3.org/2000/svg">
  <defs
     id="defs45" />
  <sodipodi:namedview
     id="namedview45"
     pagecolor="#ffffff"
     bordercolor="#000000"
     borderopacity="0.25"
     inkscape:showpageshadow="2"
     inkscape:pageopacity="0.0"
     inkscape:pagecheckerboard="0"
     inkscape:deskcolor="#d1d1d1"
     inkscape:zoom="3.6626558"
     inkscape:cx="62.386425"
     inkscape:cy="26.347002"
     inkscape:window-width="1744"
     inkscape:window-height="942"
     inkscape:window-x="1819"
     inkscape:window-y="25"
     inkscape:window-maximized="0"
     inkscape:current-layer="svg45" />
  <path
     d="m 3.0334971,7.1775945 c 0,0 -0.025432,0.2070844 -0.072661,0.3633056 C 2.9208721,7.6732467 2.8575539,7.7754916 2.851845,7.9114717 2.847195,8.0235768 2.935405,8.1107709 3.349574,8.1185558 3.7014608,8.1247785 3.823428,8.0142355 3.8125283,7.8616474 3.8021481,7.7199578 3.7419436,7.613561 3.7092456,7.4500735 3.6858886,7.3322585 3.6692803,7.1921262 3.6692803,7.1921262 Z"
     fill="#835d4e"
     id="path1"
     style="stroke-width:0.0519008" />
  <path
     d="M 3.5083894,3.1132413 2.6016821,3.4495587 1.9985952,3.5533603 c 0,0 -0.072141,0.091345 0.021802,0.1987801 0.067991,0.077333 0.1821716,0.1328661 0.3383928,0.1344231 0.1759437,0.00155 0.2470479,-0.067471 0.2667703,-0.00882 0.019725,0.058648 -0.2231731,0.203451 -0.3565585,0.2818213 -0.1333847,0.078369 -0.5693516,0.2133123 -0.5885547,0.4084593 -0.014532,0.1499933 0.1349422,0.2496428 0.2086411,0.2729982 0.093942,0.029585 0.2273253,0.023356 0.2662513,0.027507 0.038924,0.00416 0.05086,0.078369 -0.00417,0.1250807 -0.055011,0.047228 -0.2034514,0.098092 -0.3051767,0.137018 -0.101726,0.038925 -0.5169322,0.1764627 -0.5719473,0.1998182 -0.055019,0.023355 -0.1172957,0.1214473 -0.070585,0.2662512 0.047227,0.1448033 0.2153879,0.2543139 0.3679764,0.3093289 0.1525883,0.055011 0.1956658,0.031141 0.1956658,0.031141 0,0 -0.021281,0.083042 -0.097572,0.1520699 -0.076295,0.069029 -0.3176332,0.3259372 -0.3176332,0.3259372 0,0 -0.45620799,0.01193 -0.49617145,0.044632 -0.0399664,0.032696 -0.0653953,0.1126247 -0.0472273,0.1889192 0.0181638,0.076295 0.076295,0.2688461 0.43959965,0.3742051 0.3633061,0.1053585 0.6067205,0 0.6067205,0 0,0 -0.1204097,0.2314772 0.1562218,0.341507 0.2086409,0.083042 0.5267927,-0.014532 0.6067205,-0.036328 0.079928,-0.021795 0.3596727,-0.1380562 0.3596727,-0.1380562 0,0 0.076295,0.182691 0.385104,0.1961855 0.3269753,0.014532 0.5558574,-0.1453224 0.5558574,-0.1453224 0,0 0.4525751,0.2766317 0.799273,0.13079 0.2506806,-0.1053597 0.1707535,-0.3560393 0.1707535,-0.3560393 0,0 0.4395998,0.076295 0.759309,-0.05086 C 5.9674403,6.837653 6.0183027,6.6632666 6.0183027,6.576073 6.0183027,6.488879 5.8911461,6.4151809 5.8330169,6.4188137 5.7748899,6.4224237 5.6041367,6.4016827 5.5024114,6.3580857 5.4006854,6.3144887 5.2636677,6.2433846 5.2636677,6.2433846 c 0,0 -0.2377062,-0.07785 -0.3934086,-0.2122745 C 4.8053828,5.9755761 4.8121298,5.918483 4.9065865,5.9148496 5.0010463,5.9112381 5.2875384,5.9138085 5.451545,5.7949593 5.6238557,5.6698787 5.6238557,5.5582915 5.6150328,5.5079478 5.6020567,5.4358066 5.5252447,5.4067409 5.5252447,5.4067409 c 0,0 -0.6581023,-0.2076031 -0.6726344,-0.2257684 C 4.8380778,5.1628074 4.7327189,5.0429162 4.72182,5.032017 4.7109193,5.021118 4.5256348,4.9520897 4.5655981,4.897594 4.6055635,4.8430985 4.8157599,4.8415412 4.9361702,4.7159412 5.0768213,4.5690618 5.0378962,4.4361958 4.9906679,4.3853329 4.9434395,4.334471 4.8583205,4.3080008 4.8583205,4.3080008 c 0,0 -0.1598546,0.047228 -0.2143504,0.021798 -0.054498,-0.025431 -0.3139998,-0.2745554 -0.3139998,-0.2745554 0,0 -0.2205786,-0.1230055 -0.2179838,-0.1603735 0.00361,-0.050863 0.2262882,0.00155 0.410536,-0.058128 C 4.6880858,3.7832836 4.6818577,3.6691021 4.6714775,3.6260244 4.6553983,3.5585509 4.5957123,3.5305239 4.5557489,3.5014608 4.5152655,3.4729141 3.5083894,3.1132413 3.5083894,3.1132413 Z"
     fill="#0a7c1f"
     id="path2"
     style="stroke-width:0.0519008" />
  <path
     d="m 3.1388558,2.4520249 c 0,0 -0.1427268,0.2968726 -0.3851038,0.566757 -0.3851039,0.4287008 -0.759309,0.5376923 -0.759309,0.5376923 0,0 0.047227,0.1380563 0.2979108,0.1307903 0.2833786,-0.0083 0.6539501,-0.2107174 0.6539501,-0.2107174 0,0 0.1089912,0.2615801 0.243415,0.4141686 0.1614113,0.1832098 0.3513685,0.316595 0.5413252,0.2179834 0.071624,-0.037369 0.086155,-0.193071 0,-0.3015437 -0.2117549,-0.2667704 -0.075256,-0.247048 -0.060205,-0.2335538 0,0 0.1655633,0.128195 0.470221,0.1245625 0.3046583,-0.00362 0.4141685,-0.1961852 0.4141685,-0.1961852 0,0 -0.3778377,-0.2107172 -0.6248855,-0.4977288 C 3.6832958,2.7172381 3.4798442,2.4701903 3.4798442,2.4701903 Z"
     fill="#02ab48"
     id="path3"
     style="stroke-width:0.0519008" />
  <path
     d="m 2.9826346,4.0137205 c -5.191e-4,5.191e-4 -0.1764628,0.1136624 -0.3742049,0.098092 -0.085637,-0.00675 -0.1463604,-0.070585 -0.1463604,-0.070585 0,0 -0.1961853,0.1152194 -0.2932394,0.1650447 -0.1198916,0.061763 -0.2735176,0.1230042 -0.3544825,0.1816529 -0.039966,0.029065 -0.096016,0.090826 -0.096016,0.090826 0,0 0.029064,0.1344232 0.2833783,0.1344232 0.2543141,0 0.4250675,-0.032697 0.5812894,0.01089 0.1562212,0.043597 0.3996361,0.2870116 0.5703896,0.2870116 0.1707536,0 0.2906447,-0.2288826 0.4541321,-0.2288826 0.1634872,0 0.2070843,0.08356 0.4577653,0.108991 0.2506813,0.025431 0.6466841,-0.1198902 0.7375106,-0.2070842 0.1230055,-0.1183335 0.056053,-0.2761123 0.056053,-0.2761123 0,0 -0.159336,-0.063837 -0.3025822,-0.1333851 -0.1240434,-0.0602 -0.2252498,-0.1172902 -0.2252498,-0.1172902 0,0 -0.058129,0.065395 -0.1235237,0.061763 C 4.1420984,4.1154474 4.048158,4.0780774 3.9718637,4.136206 3.8955701,4.1943352 3.8498971,4.2856803 3.6988654,4.3079977 3.3277752,4.3624936 2.9826346,4.01372 2.9826346,4.0137205 Z"
     fill="#02ab48"
     id="path4"
     style="stroke-width:0.0519008" />
  <path
     d="m 1.2719835,5.3325203 c 0,0 -0.052936,0.1764626 0.1909953,0.2859735 0.2439336,0.1095107 0.7022178,0.012461 0.7234968,0.033735 0.021281,0.021278 -0.3757616,0.2361488 -0.1681581,0.4120926 0.2480858,0.2101982 0.8875036,-0.4162448 0.9295432,-0.4162448 0.042041,0 0.06332,0.5174516 0.3197092,0.6098347 0.2563899,0.092384 0.5086276,-0.285973 0.6643302,-0.3321645 0.1557027,-0.046194 0.2693656,0.092383 0.4707403,0.1006867 C 4.6683726,6.037335 4.7981252,5.9677845 4.814733,5.8582753 4.8313413,5.7487648 4.5962304,5.5515415 4.6465748,5.5095018 4.6969204,5.4674624 4.7851497,5.6231646 5.1385943,5.5977332 5.4920389,5.5723021 5.5273317,5.4067382 5.5273317,5.4067382 L 4.7197551,5.0325336 c 0,0 -0.1110683,0.1323471 -0.2875306,0.136499 C 4.2557614,5.1731848 3.8099336,5.0974096 3.6334707,5.1477537 3.4570078,5.1980973 3.4019933,5.3999917 3.1077153,5.3875354 2.8134378,5.3750792 2.6156957,5.1773372 2.4138016,5.2738726 2.2119074,5.3704085 2.0639898,5.493932 1.9518842,5.424904 1.8875274,5.3849403 1.8942752,5.3278497 1.8999826,5.2390989 c 0.00417,-0.06747 0.030099,-0.1385751 0.030099,-0.1385751 z"
     fill="#02ab48"
     id="path5"
     style="stroke-width:0.0519008" />
  <path
     d="m 0.85366289,6.4618819 c 0,0 0.11314436,0.309329 0.66484971,0.309329 0.4712591,0 0.6368231,-0.26158 0.7260922,-0.3363176 0.08875,-0.074736 0.1531072,-0.1795763 0.181653,-0.1333847 0.028544,0.046194 -0.2849358,0.3845853 -0.4131304,0.509147 -0.071624,0.069547 -0.160374,0.2029323 -0.024913,0.2885688 0.1354607,0.085636 0.452056,0.046194 0.7084459,-0.063837 0.25639,-0.1100302 0.3311274,-0.3383936 0.3311274,-0.3383936 0,0 -0.1920333,-0.074736 -0.2278446,-0.3062148 C 2.7641303,6.1593004 2.75375,6.0612077 2.6790144,6.0508275 2.6042776,6.0399267 2.0717752,6.4743382 1.7422052,6.3336873 1.5854646,6.2667353 1.666949,6.091829 1.666949,6.091829 c 0,0 -0.1510319,0.1193721 -0.3539639,0.196704 C 1.1578018,6.347182 0.85366289,6.4618819 0.85366289,6.4618819 Z"
     fill="#02ab48"
     id="path6"
     style="stroke-width:0.0519008" />
  <path
     d="m 3.1315897,6.7146391 c 0,0 -0.066431,0.2076029 -0.052942,0.258466 0.025432,0.097055 0.1204097,0.1972233 0.3591539,0.1790576 C 3.6765453,7.1345196 3.8078546,7.0452477 3.8047405,6.9668769 3.8016162,6.8885072 3.648,6.6928406 3.7227371,6.6430156 3.7974754,6.5931912 3.8509324,6.7068529 3.9256692,6.8283021 4.0004076,6.9497507 4.3242676,7.341082 4.6662939,7.1557962 4.9792563,6.9860801 4.5593789,6.6502818 4.6450126,6.5968241 c 0.085637,-0.053457 0.2885686,0.134942 0.5978975,0.120929 0.5480726,-0.024913 0.6228096,-0.295316 0.6228096,-0.295316 0,0 -0.2101983,-0.053457 -0.3311269,-0.085636 -0.1209291,-0.032182 -0.2709221,-0.092903 -0.2709221,-0.092903 0,0 -0.2454911,0.1250806 -0.5869989,0.1141817 C 4.3351648,6.3471797 4.1317133,6.2122389 3.9858724,6.2371513 3.8400308,6.2620638 3.7294824,6.46811 3.5478295,6.5859251 3.2950722,6.7499318 3.1315848,6.7146391 3.1315848,6.7146391 Z"
     fill="#02ab48"
     id="path7"
     style="stroke-width:0.0519008" />
  <path
     d="m 3.4274244,3.0115157 c -0.184767,0.00259 -0.2667702,0.1292331 -0.2646939,0.2818215 0.00208,0.1525885 0.1115871,0.2558711 0.283897,0.2537949 C 3.6189385,3.5450595 3.7087269,3.4267224 3.7024987,3.2611587 3.6972918,3.1168744 3.5950644,3.0094398 3.4274244,3.0115157 Z"
     fill="#ff5f5e"
     id="path11"
     style="fill:#df0e2b;fill-opacity:1;stroke-width:0.0519008" />
  <path
     d="m 4.1395038,4.040709 c -0.1847672,0.0026 -0.292202,0.139613 -0.290126,0.2922016 0.00208,0.1525885 0.1183344,0.2709221 0.3031009,0.2688462 C 4.3419166,4.5996808 4.4363764,4.4642197 4.4296292,4.2986561 4.4244237,4.1548909 4.3071431,4.0386328 4.1395038,4.040709 Z"
     fill="#fcd81e"
     id="path12"
     style="fill:#df0e2b;fill-opacity:1;stroke-width:0.0519008" />
  <path
     d="M 2.8985549,4.0941667 C 2.704965,4.0967575 2.6016821,4.2306659 2.6037582,4.3931155 2.6058435,4.5555651 2.7355863,4.6707849 2.9156827,4.6681898 3.0957783,4.6661173 3.1954278,4.5368808 3.1886808,4.3609371 3.1829812,4.2073107 3.0739796,4.0920908 2.8985549,4.0941667 Z"
     fill="#df0e2b"
     id="path13"
     style="stroke-width:0.0519008" />
  <path
     d="M 2.3873317,5.0771683 C 2.1916659,5.0792451 2.0951304,5.2235287 2.0972065,5.3932442 2.0997785,5.5629599 2.2181356,5.6750657 2.4086114,5.6724706 2.5990875,5.6698741 2.6992562,5.5385667 2.6925087,5.3543186 2.6862806,5.1944641 2.5731369,5.0750921 2.3873317,5.0771683 Z"
     fill="#ffd2b1"
     id="path14"
     style="fill:#df0e2b;fill-opacity:1;stroke-width:0.0519008" />
  <path
     d="m 3.4788062,5.3724839 c -0.2055269,0.0026 -0.2963534,0.1432463 -0.2937587,0.3129619 0.00258,0.1697157 0.124043,0.2844166 0.3150378,0.2818213 C 3.6910806,5.964695 3.7912492,5.8333629 3.7845018,5.6496342 3.7782738,5.4897798 3.6651301,5.3704079 3.4788062,5.3724839 Z"
     fill="#fcd81e"
     id="path15"
     style="fill:#df0e2b;fill-opacity:1;stroke-width:0.0519008" />
  <path
     d="M 4.4649218,5.0792442 C 4.2578377,5.0818477 4.1566307,5.2256046 4.1587068,5.3973964 4.1612764,5.569188 4.281712,5.696345 4.4747826,5.6942689 4.6673346,5.6916767 4.7804789,5.5468706 4.7732127,5.3605467 4.7675175,5.1980972 4.6533217,5.0771683 4.4649218,5.0792442 Z"
     fill="#ff5f5d"
     id="path16"
     style="fill:#df0e2b;fill-opacity:1;stroke-width:0.0519008" />
  <path
     d="M 4.5713186,6.5428475 C 4.5806578,6.353409 4.4685545,6.2537597 4.3128527,6.2444174 4.1571501,6.2350782 4.0393351,6.3300539 4.0284361,6.5059975 c -0.010901,0.1759442 0.095498,0.2937587 0.264694,0.2994681 0.1473985,0.00521 0.269365,-0.081484 0.2781885,-0.2626181 z"
     fill="#c9c9c9"
     id="path17"
     style="fill:#df0e2b;fill-opacity:1;stroke-width:0.0519008" />
  <path
     d="M 2.4724495,6.2620638 C 2.2798976,6.2646334 2.1947798,6.3944113 2.1968558,6.5506324 2.1989387,6.7068536 2.3131143,6.8127317 2.4921719,6.8106556 2.6712296,6.8085736 2.7651701,6.6871319 2.7584228,6.517935 2.7532174,6.3694986 2.6473552,6.2594689 2.4724495,6.2620638 Z"
     fill="#ff5f5e"
     id="path18"
     style="fill:#df0e2b;fill-opacity:1;stroke-width:0.0519008" />
  <path
     d="m 2.2907965,6.5454422 c 0.056054,0.030106 0.077333,-0.051381 0.1053596,-0.079408 0.028023,-0.02803 0.09446,-0.075256 0.062281,-0.1162583 -0.032175,-0.040999 -0.1141818,-0.017643 -0.1525878,0.025948 -0.051901,0.058128 -0.060725,0.1453222 -0.015054,0.1697155 z"
     fill="#f9ffff"
     id="path19"
     style="stroke-width:0.0519008" />
  <path
     d="M 4.1311996,6.5371381 C 4.1872524,6.567244 4.2111271,6.485237 4.2344818,6.4530589 4.2645813,6.4120596 4.3377629,6.3840301 4.3055859,6.3435483 4.2734037,6.302549 4.1955556,6.3284948 4.1571495,6.3715715 4.1052473,6.4296996 4.0855253,6.5122226 4.1312037,6.537135 Z"
     fill="#f9ffff"
     id="path20"
     style="stroke-width:0.0519008" />
  <path
     d="m 4.2739266,5.382345 c 0.061763,0.031659 0.085117,-0.05761 0.1152193,-0.09446 0.026988,-0.032697 0.105877,-0.067991 0.070066,-0.1110683 -0.035814,-0.043078 -0.1198903,-0.020241 -0.1624493,0.024913 -0.057088,0.061242 -0.073181,0.1546644 -0.022836,0.1806139 z"
     fill="#f9ffff"
     id="path21"
     style="stroke-width:0.0519008" />
  <path
     d="m 3.297153,5.6792177 c 0.056053,0.030102 0.077333,-0.051382 0.1053597,-0.079408 0.028023,-0.028026 0.094459,-0.090307 0.062282,-0.131309 -0.032182,-0.041 -0.1115879,-0.015052 -0.1525885,0.041 -0.045673,0.062801 -0.060727,0.1453221 -0.015053,0.169717 z"
     fill="#f9ffff"
     id="path22"
     style="stroke-width:0.0519008" />
  <path
     d="M 2.2025652,5.384421 C 2.2586192,5.414523 2.2939102,5.329405 2.318304,5.298267 2.365531,5.238062 2.410687,5.205884 2.378509,5.1648817 c -0.032176,-0.041 -0.1183333,-0.00622 -0.1608927,0.049306 -0.046708,0.062281 -0.060205,0.1458412 -0.015053,0.1702344 z"
     fill="#f9ffff"
     id="path23"
     style="stroke-width:0.0519008" />
  <path
     d="m 2.7158644,4.3910395 c 0.056054,0.030102 0.08304,-0.047228 0.1053585,-0.079408 0.034258,-0.049306 0.098612,-0.090307 0.066435,-0.1313091 -0.032176,-0.041 -0.1095106,-0.019203 -0.1567406,0.041 -0.04775,0.060723 -0.060726,0.1448032 -0.015053,0.1697156 z"
     fill="#f9ffff"
     id="path24"
     style="stroke-width:0.0519008" />
  <path
     d="m 3.9666741,4.3645701 c 0.061243,0.033216 0.084598,-0.056572 0.1152193,-0.087194 C 4.1125144,4.2467541 4.1856947,4.1948531 4.1504024,4.150219 4.1151084,4.105585 4.0253217,4.131016 3.9832816,4.178245 3.9261946,4.242082 3.9163296,4.3380995 3.9666741,4.3645701 Z"
     fill="#f9ffff"
     id="path25"
     style="stroke-width:0.0519008" />
  <path
     d="m 3.2426574,3.2886662 c 0.056053,0.030102 0.077333,-0.051382 0.1053597,-0.079408 0.028023,-0.028026 0.094459,-0.075256 0.062281,-0.1162581 -0.032182,-0.041 -0.097055,-0.019203 -0.1442843,0.03633 -0.049825,0.059686 -0.069029,0.1349422 -0.023358,0.1593356 z"
     fill="#f9ffff"
     id="path26"
     style="stroke-width:0.0519008" />
  <g
     id="g45"
     transform="matrix(0.73488203,-2.345853e-8,2.345853e-8,0.73488203,3.5582893,0.35860416)">
    <path
       d="M -0.265976,1.6334847 -0.0864998,2.04284 a 0.09396502,0.09396502 0 0 0 0.077604,0.05587 l 0.4372234,0.039202 c 0.049469,0.0072 0.069204,0.06787 0.033335,0.1028055 L 0.132312,2.5173986 C 0.105644,2.5397996 0.09351,2.5750016 0.100844,2.6090036 l 0.095738,0.4481573 c 0.0084,0.049203 -0.043202,0.086805 -0.087471,0.06347 L -0.2725097,2.8971522 a 0.09377834,0.09377834 0 0 0 -0.094938,0 l -0.3816208,0.2233453 c -0.044136,0.023201 -0.095872,-0.014267 -0.087471,-0.06347 l 0.095738,-0.4481572 c 0.0072,-0.034002 -0.0048,-0.069204 -0.031468,-0.091605 L -1.101754,2.2408506 c -0.035735,-0.034802 -0.016001,-0.095605 0.033335,-0.1028055 l 0.4372233,-0.039202 a 0.09396502,0.09396502 0 0 0 0.077604,-0.05587 l 0.1794764,-0.409355 c 0.022268,-0.044802 0.086005,-0.044802 0.1081393,-1.334e-4 z"
       fill="#fdd835"
       id="path1-7"
       style="stroke-width:0.013334" />
    <path
       d="M -0.2790434,2.0673749 -0.309445,1.7657588 c -0.0012,-0.016801 -0.00467,-0.045602 0.022268,-0.045602 0.021335,0 0.032935,0.044402 0.032935,0.044402 l 0.091205,0.2421463 c 0.034402,0.092138 0.020268,0.1237399 -0.012934,0.1424076 -0.038135,0.021334 -0.094405,0.00467 -0.1030724,-0.081738 z"
       fill="#ffff8d"
       id="path2-8"
       style="stroke-width:0.013334" />
    <path
       d="M 0.09711,2.4905975 0.358724,2.2864532 c 0.012934,-0.010801 0.036269,-0.028001 0.017601,-0.047602 -0.014801,-0.015467 -0.054803,0.0068 -0.054803,0.0068 l -0.2289456,0.089472 c -0.06827,0.023601 -0.113606,0.058536 -0.1176062,0.1025388 -0.0052,0.05867 0.047469,0.1038722 0.1221398,0.052935 z"
       fill="#f4b400"
       id="path3-8"
       style="stroke-width:0.013334" />
  </g>
  <path
     style="font-weight:bold;font-stretch:condensed;font-size:2.34667px;line-height:1;font-family:'Hubot Sans Condensed';-inkscape-font-specification:'Hubot Sans Condensed,  Bold Condensed';fill:#333333;stroke-width:0.16"
     d="m 6.1831666,4.389989 q -0.1947736,0 -0.3003737,-0.1267202 Q 5.7795394,4.134202 5.7795394,3.8878017 V 3.202574 q 0,-0.3050671 0.1314135,-0.4364806 0.1314135,-0.1337602 0.3801605,-0.1337602 0.2440537,0 0.3754672,0.1408002 0.1314135,0.1384536 0.1220269,0.4599473 H 6.478847 q 0,-0.1830402 -0.04224,-0.2604803 -0.04224,-0.07744 -0.1525336,-0.07744 -0.096213,0 -0.1408002,0.061013 -0.044587,0.061013 -0.044587,0.1877336 V 3.878415 q 0,0.1431468 0.04928,0.1971202 0.051627,0.051627 0.1314135,0.051627 0.1102935,0 0.1501869,-0.0704 0.04224,-0.0704 0.04224,-0.1783469 V 3.7094547 H 6.2817268 V 3.4700944 H 6.7909541 V 4.3665223 H 6.5562871 L 6.5328204,4.1318553 H 6.5210871 Q 6.4976204,4.2585755 6.4084469,4.3242823 6.3216202,4.389989 6.1831666,4.389989 Z M 6.9739962,4.3665223 V 3.1087072 H 7.2861033 V 4.3665223 Z M 6.9575695,2.946787 V 2.6205999 H 7.3001833 V 2.946787 Z m 0.8377591,1.4197353 q -0.093867,0 -0.1501869,-0.044587 Q 7.5911683,4.2773489 7.5911683,4.169402 L 7.593515,3.3551076 H 7.4222081 V 3.1087072 H 7.593515 V 2.7238534 H 7.9032754 V 3.1087072 H 8.091009 V 3.3551076 H 7.9032754 v 0.767361 H 8.091009 v 0.2440537 z m 0.4411758,0 V 2.6557999 h 0.3121071 v 0.6312543 h 0.01408 q 0.025813,-0.09152 0.1056001,-0.1454936 0.082133,-0.05632 0.1877336,-0.05632 0.1830403,0 0.2581337,0.1149869 0.075093,0.1126401 0.075093,0.3097604 V 4.3665223 H 8.8771452 V 3.5545745 q 0,-0.1267202 -0.046933,-0.1666135 -0.044587,-0.04224 -0.1056001,-0.04224 -0.08448,0 -0.1314135,0.05632 -0.044587,0.05632 -0.044587,0.1642669 v 0.8002144 z m 1.4713608,0.023467 q -0.1830403,0 -0.2604804,-0.1126401 Q 9.3722914,4.162362 9.3722914,3.9675884 V 3.1087072 h 0.3121071 v 0.8142945 q 0,0.1267202 0.044587,0.1666136 0.046933,0.039893 0.1079468,0.039893 0.08448,0 0.1290669,-0.053973 0.046933,-0.05632 0.046933,-0.1666135 V 3.1087072 h 0.312107 v 1.2578151 h -0.293333 l -0.01877,-0.1783469 h -0.016426 q -0.025813,0.09152 -0.1056002,0.1478402 -0.07744,0.053973 -0.1830402,0.053973 z m 1.4126938,0 q -0.103253,0 -0.180693,-0.05632 -0.07509,-0.058667 -0.09621,-0.1548802 h -0.01643 l -0.01877,0.1877336 H 10.515118 V 2.6557999 h 0.312108 v 0.6406409 h 0.01643 q 0.02112,-0.096213 0.09621,-0.1525335 0.07744,-0.058667 0.180693,-0.058667 0.159574,0 0.251094,0.1149869 0.09152,0.1126401 0.09152,0.3918938 v 0.2909871 q 0,0.2792537 -0.09152,0.3942406 -0.09152,0.1126401 -0.251094,0.1126401 z M 10.989146,4.1295087 q 0.16192,0 0.16192,-0.2393604 V 3.5850812 q 0,-0.2393603 -0.16192,-0.2393603 -0.07744,0 -0.11968,0.05632 -0.04224,0.053973 -0.04224,0.1713069 v 0.3308804 q 0,0.1149869 0.04224,0.1713069 0.04224,0.053973 0.11968,0.053973 z m 0.80491,0.2370136 0.312107,-1.7107224 h 0.452907 l 0.309761,1.7107224 h -0.319147 l -0.04459,-0.3191471 h -0.34496 l -0.04459,0.3191471 z m 0.401281,-0.5585074 h 0.27456 L 12.38307,3.2823608 12.343177,2.946787 h -0.02112 l -0.03989,0.3355738 z m 1.215576,0.5819741 q -0.21824,0 -0.342613,-0.1243735 Q 12.943926,4.1388953 12.943926,3.8737216 V 3.6015079 q 0,-0.2651737 0.124374,-0.3895472 0.124373,-0.1267202 0.342613,-0.1267202 0.213547,0 0.342614,0.1173335 0.129067,0.1173335 0.12672,0.3660805 h -0.29568 q 0.0023,-0.1102934 -0.03755,-0.1689602 -0.03755,-0.058667 -0.12672,-0.058667 -0.166614,0 -0.166614,0.2088536 v 0.3754672 q 0,0.2112003 0.166614,0.2112003 0.08917,0 0.12672,-0.058667 0.03989,-0.061013 0.03755,-0.1713069 h 0.29568 q 0.0023,0.248747 -0.12672,0.3660805 Q 13.62446,4.389989 13.410913,4.389989 Z M 14.844727,2.9444403 V 2.6557999 h 0.312107 v 0.2886404 z m 0,0.4106673 H 14.48334 v 0.767361 h 0.187733 v 0.2440537 h -0.29568 q -0.09387,0 -0.150187,-0.044587 -0.05397,-0.044587 -0.05397,-0.1525336 l 0.0023,-0.8142944 H 14.002272 V 3.1087072 h 0.171307 V 2.7238534 h 0.309761 v 0.3848538 h 0.673494 v 1.2578151 h -0.312107 z m 0.933976,1.0348814 q -0.234667,0 -0.354347,-0.1314135 Q 15.307023,4.127162 15.307023,3.8737216 V 3.6015079 q 0,-0.2651737 0.122027,-0.3895472 0.124373,-0.1267202 0.349653,-0.1267202 0.234667,0 0.352001,0.1337602 0.11968,0.1314135 0.11968,0.3825072 v 0.2722137 q 0,0.2651737 -0.124373,0.3918939 -0.124374,0.1243735 -0.347308,0.1243735 z m 0,-0.2534403 q 0.161921,0 0.161921,-0.2112003 V 3.5498812 q 0,-0.2088536 -0.161921,-0.2088536 -0.16192,0 -0.16192,0.2088536 v 0.3754672 q 0,0.2112003 0.16192,0.2112003 z m 0.645333,0.2299736 V 3.1087072 h 0.293334 l 0.01877,0.178347 h 0.01408 q 0.02581,-0.09152 0.105601,-0.1454936 0.08213,-0.05632 0.187733,-0.05632 0.18304,0 0.258134,0.1149869 0.07509,0.1126401 0.07509,0.3097604 V 4.3665223 H 17.064677 V 3.5545745 q 0,-0.1267202 -0.04693,-0.1666135 -0.04459,-0.04224 -0.1056,-0.04224 -0.08448,0 -0.131414,0.05632 -0.04459,0.05632 -0.04459,0.1642669 v 0.8002144 z m 1.544108,0.023467 q -0.229974,0 -0.337921,-0.1149868 -0.107946,-0.1149868 -0.1056,-0.3003738 h 0.300374 q -0.0047,0.09856 0.03051,0.1454936 0.0352,0.044587 0.09856,0.044587 0.06571,0.00235 0.09621,-0.032853 0.03051,-0.037547 0.03051,-0.09152 0,-0.075093 -0.04928,-0.1102935 -0.04928,-0.037547 -0.150187,-0.082133 -0.07979,-0.0352 -0.157227,-0.079787 -0.07744,-0.044587 -0.129067,-0.1173335 -0.04928,-0.072747 -0.04928,-0.1924269 0,-0.1689603 0.11264,-0.2698671 0.114987,-0.1032535 0.302721,-0.1032535 0.213547,0 0.314454,0.1102935 0.100906,0.1079468 0.103253,0.2792537 h -0.286294 q 0.0023,-0.075093 -0.02581,-0.1220268 -0.02581,-0.046933 -0.09856,-0.046933 -0.107947,0 -0.107947,0.1196802 0,0.06336 0.04224,0.1032535 0.04459,0.037547 0.157227,0.079787 0.09152,0.0352 0.166614,0.086827 0.07744,0.04928 0.122026,0.1267202 0.04459,0.07744 0.04459,0.1947736 0,0.1830402 -0.122027,0.2792537 -0.11968,0.093867 -0.30272,0.093867 z"
     id="text1"
     aria-label="Github Actions" />
  <path
     style="font-weight:bold;font-stretch:condensed;font-size:2.34667px;line-height:1;font-family:'Hubot Sans Condensed';-inkscape-font-specification:'Hubot Sans Condensed,  Bold Condensed';fill:#333333;stroke-width:0.16"
     d="M 7.2452803,6.9727578 V 5.2620355 H 7.738081 q 0.2628271,0 0.3801606,0.1501868 0.1196801,0.1478402 0.1196801,0.448214 V 6.374357 q 0,0.3003737 -0.1196801,0.4505606 Q 8.0009081,6.9727578 7.738081,6.9727578 Z m 0.3191472,-0.262827 h 0.1408002 q 0.1173334,0 0.1642668,-0.075094 0.04928,-0.075093 0.04928,-0.2299736 V 5.8299296 q 0,-0.1548802 -0.04928,-0.2299737 -0.046933,-0.075093 -0.1642668,-0.075093 H 7.5644275 Z m 1.1803728,0.2862937 q -0.1595735,0 -0.2510936,-0.1126401 Q 8.4045332,6.7685975 8.4045332,6.4893438 V 6.1983567 q 0,-0.2792537 0.089174,-0.3918938 0.09152,-0.1149869 0.2510936,-0.1149869 0.1056002,0 0.1806936,0.058667 0.07744,0.05632 0.09856,0.1525335 h 0.016427 L 9.0592541,5.7149427 H 9.3525878 V 6.9727578 H 9.0404807 V 6.7850242 h -0.016427 q -0.02112,0.096214 -0.09856,0.1548802 -0.075093,0.05632 -0.1806936,0.05632 z M 8.8762138,6.7357442 q 0.07744,0 0.1196802,-0.053973 0.044587,-0.05632 0.044587,-0.1713069 V 6.1795834 q 0,-0.1173335 -0.044587,-0.1713069 -0.04224,-0.05632 -0.1196802,-0.05632 -0.1595735,0 -0.1595735,0.2393603 v 0.3050671 q 0,0.2393604 0.1595735,0.2393604 z m 1.0653903,0.2604803 q -0.2299737,0 -0.3379205,-0.1149868 Q 9.4957368,6.7662509 9.4980835,6.5808639 h 0.3003737 q -0.00469,0.09856 0.030507,0.1454936 0.0352,0.044587 0.09856,0.044587 0.065707,0.00235 0.096214,-0.032853 0.03051,-0.037547 0.03051,-0.09152 0,-0.075093 -0.04928,-0.1102935 -0.04928,-0.037547 -0.1501867,-0.082133 -0.079787,-0.0352 -0.1572269,-0.079787 -0.07744,-0.044587 -0.1290668,-0.1173335 -0.04928,-0.072747 -0.04928,-0.1924269 0,-0.1689603 0.1126402,-0.2698671 0.1149868,-0.1032535 0.3027204,-0.1032535 0.2135469,0 0.3144539,0.1102935 0.100907,0.1079468 0.103253,0.2792537 h -0.286293 q 0.0023,-0.075093 -0.02581,-0.1220268 -0.02581,-0.046933 -0.09856,-0.046933 -0.1079468,0 -0.1079468,0.1196802 0,0.06336 0.04224,0.1032535 0.044587,0.037547 0.1572267,0.079787 0.09152,0.0352 0.166614,0.086827 0.07744,0.04928 0.122027,0.1267202 0.04459,0.07744 0.04459,0.1947736 0,0.1830403 -0.122026,0.2792537 -0.119681,0.093867 -0.3027209,0.093867 z M 10.509499,6.9727578 V 5.2620355 h 0.312107 v 0.6312542 h 0.01408 q 0.02581,-0.09152 0.1056,-0.1454936 0.08213,-0.05632 0.187733,-0.05632 0.183041,0 0.258134,0.1149869 0.07509,0.1126401 0.07509,0.3097604 V 6.9727578 H 11.15014 V 6.16081 q 0,-0.1267201 -0.04693,-0.1666135 -0.04459,-0.04224 -0.1056,-0.04224 -0.08448,0 -0.131414,0.05632 -0.04459,0.05632 -0.04459,0.1642669 v 0.8002144 z m 1.741228,0.023467 q -0.103254,0 -0.180694,-0.05632 -0.07509,-0.058667 -0.09621,-0.1548802 h -0.01643 L 11.93862,6.9727578 H 11.645286 V 5.2620355 h 0.312107 v 0.6406408 h 0.01643 q 0.02112,-0.096213 0.09621,-0.1525335 0.07744,-0.058667 0.180694,-0.058667 0.159573,0 0.251093,0.1149869 0.09152,0.1126401 0.09152,0.3918938 v 0.2909871 q 0,0.2792537 -0.09152,0.3942406 -0.09152,0.1126401 -0.251093,0.1126401 z M 12.119313,6.7357442 q 0.16192,0 0.16192,-0.2393604 V 6.1913167 q 0,-0.2393603 -0.16192,-0.2393603 -0.07744,0 -0.11968,0.05632 -0.04224,0.053973 -0.04224,0.1713069 v 0.3308804 q 0,0.1149869 0.04224,0.1713069 0.04224,0.053973 0.11968,0.053973 z m 1.095896,0.2604803 q -0.234667,0 -0.354347,-0.1314135 Q 12.743528,6.7333975 12.743528,6.4799571 V 6.2077434 q 0,-0.2651737 0.122027,-0.3895472 0.124373,-0.1267202 0.349654,-0.1267202 0.234667,0 0.352,0.1337602 0.11968,0.1314135 0.11968,0.3825072 v 0.2722137 q 0,0.2651737 -0.124373,0.3918939 -0.124374,0.1243735 -0.347307,0.1243735 z m 0,-0.2534403 q 0.16192,0 0.16192,-0.2112003 V 6.1561167 q 0,-0.2088536 -0.16192,-0.2088536 -0.161921,0 -0.161921,0.2088536 v 0.3754672 q 0,0.2112003 0.161921,0.2112003 z m 0.962134,0.2534403 q -0.159574,0 -0.251094,-0.1126401 -0.08917,-0.1149869 -0.08917,-0.3942406 V 6.1983567 q 0,-0.2792537 0.08917,-0.3918938 0.09152,-0.1149869 0.251094,-0.1149869 0.1056,0 0.180693,0.058667 0.07744,0.05632 0.09856,0.1525335 h 0.01643 l 0.01877,-0.1877336 H 14.78513 V 6.9727578 H 14.473023 V 6.7850242 h -0.01643 q -0.02112,0.096214 -0.09856,0.1548802 -0.07509,0.05632 -0.180693,0.05632 z m 0.131413,-0.2604803 q 0.07744,0 0.11968,-0.053973 0.04459,-0.05632 0.04459,-0.1713069 V 6.1795834 q 0,-0.1173335 -0.04459,-0.1713069 -0.04224,-0.05632 -0.11968,-0.05632 -0.159574,0 -0.159574,0.2393603 v 0.3050671 q 0,0.2393604 0.159574,0.2393604 z m 0.66411,0.2370136 V 5.9683831 q 0,-0.1290669 0.07275,-0.1900803 0.07509,-0.06336 0.19712,-0.06336 H 15.583 v 0.2557871 h -0.298027 v 1.002028 z m 1.034885,0.023467 q -0.159574,0 -0.251094,-0.1126401 -0.08917,-0.1149869 -0.08917,-0.3942406 V 6.1983567 q 0,-0.2792537 0.08917,-0.3918938 0.09152,-0.1149869 0.251094,-0.1149869 0.1056,0 0.180693,0.058667 0.07744,0.05632 0.09856,0.1525335 h 0.01643 V 5.2620355 h 0.312107 v 1.7107223 h -0.293334 l -0.01877,-0.1877336 h -0.01643 q -0.02112,0.096214 -0.09856,0.1548802 -0.07509,0.05632 -0.180693,0.05632 z m 0.131413,-0.2604803 q 0.07744,0 0.11968,-0.053973 0.04459,-0.05632 0.04459,-0.1713069 V 6.1795834 q 0,-0.1173335 -0.04459,-0.1713069 -0.04224,-0.05632 -0.11968,-0.05632 -0.159573,0 -0.159573,0.2393603 v 0.3050671 q 0,0.2393604 0.159573,0.2393604 z"
     id="text1-0"
     aria-label="Dashboard" />
</svg>
