<?xml version="1.0" encoding="UTF-8" standalone="no"?>
<!-- Uploaded to: SVG Repo, www.svgrepo.com, Generator: SVG Repo Mixer Tools -->

<svg
   width="64"
   height="64"
   viewBox="0 0 10.24 10.24"
   aria-hidden="true"
   role="img"
   class="iconify iconify--noto"
   preserveAspectRatio="xMidYMid"
   version="1.1"
   id="svg45"
   sodipodi:docname="favicon.svg"
   inkscape:version="1.3.2 (091e20e, 2023-11-25)"
   xmlns:inkscape="http://www.inkscape.org/namespaces/inkscape"
   xmlns:sodipodi="http://sodipodi.sourceforge.net/DTD/sodipodi-0.dtd"
   xmlns="http://www.w3.org/2000/svg"
   xmlns:svg="http://www.w3.org/2000/svg">
  <defs
     id="defs45" />
  <sodipodi:namedview
     id="namedview45"
     pagecolor="#ffffff"
     bordercolor="#000000"
     borderopacity="0.25"
     inkscape:showpageshadow="2"
     inkscape:pageopacity="0.0"
     inkscape:pagecheckerboard="0"
     inkscape:deskcolor="#d1d1d1"
     inkscape:zoom="12.046875"
     inkscape:cx="32"
     inkscape:cy="32"
     inkscape:window-width="1744"
     inkscape:window-height="942"
     inkscape:window-x="1819"
     inkscape:window-y="25"
     inkscape:window-maximized="0"
     inkscape:current-layer="svg45" />
  <path
     d="m 4.6215894,8.7762337 c 0,0 -0.039553,0.322056 -0.1130016,0.5650102 C 4.446434,9.5470686 4.3479631,9.706079 4.3390848,9.9175543 4.3318465,10.0919 4.4690364,10.227503 5.1131494,10.23961 5.660402,10.249296 5.8500845,10.077371 5.8331336,9.8400678 5.8169904,9.6197132 5.7233606,9.4542455 5.672509,9.1999911 5.6361843,9.0167659 5.6103552,8.7988332 5.6103552,8.7988332 Z"
     fill="#835d4e"
     id="path1"
     style="stroke-width:0.0807158" />
  <path
     d="M 5.3601389,2.4553793 3.9500339,2.9784177 3.012117,3.1398493 c 0,0 -0.112195,0.1420598 0.033905,0.3091415 0.1057377,0.1202665 0.2833123,0.2066324 0.5262665,0.2090539 0.2736263,0.00242 0.384207,-0.1049306 0.4148791,-0.013721 0.030677,0.091209 -0.347077,0.3164056 -0.5545171,0.4382865 -0.2074391,0.1218808 -0.8854519,0.3317419 -0.9153164,0.6352333 -0.0226,0.2332686 0.2098611,0.3882429 0.324477,0.424565 0.1460958,0.046008 0.3535349,0.036322 0.4140725,0.042779 0.060535,0.00646 0.079097,0.1218809 -0.00648,0.1945251 -0.085554,0.073451 -0.3164063,0.1525528 -0.474609,0.2130897 -0.1582027,0.060537 -0.8039291,0.2744337 -0.8894882,0.3107558 -0.085564,0.036322 -0.1824176,0.1888749 -0.109773,0.4140721 0.073449,0.225197 0.3349696,0.3955071 0.5722741,0.4810662 0.2373046,0.085554 0.3042985,0.04843 0.3042985,0.04843 0,0 -0.033096,0.1291459 -0.1517454,0.2364979 -0.1186523,0.107352 -0.4939809,0.5068955 -0.4939809,0.5068955 0,0 -0.7094917,0.018562 -0.7716426,0.069411 -0.062154,0.050849 -0.1017015,0.1751536 -0.073449,0.2938059 0.028248,0.1186522 0.1186523,0.4181077 0.6836624,0.581961 0.5650112,0.1638524 0.9435675,0 0.9435675,0 0,0 -0.1872605,0.3599922 0.2429552,0.5311095 0.324477,0.1291458 0.8192646,-0.022601 0.9435675,-0.056497 0.1243019,-0.033896 0.5593606,-0.214704 0.5593606,-0.214704 0,0 0.1186522,0.2841199 0.598911,0.3051061 0.5085098,0.0226 0.8644657,-0.2260043 0.8644657,-0.2260043 0,0 0.7038419,0.4302157 1.2430239,0.2034038 0.3898567,-0.1638533 0.2655547,-0.55371 0.2655547,-0.55371 0,0 0.6836625,0.1186523 1.1808721,-0.079097 C 9.1844416,8.247551 9.2635425,7.9763466 9.2635425,7.8407435 9.2635425,7.7051413 9.0657893,7.5905253 8.9753872,7.596175 8.8849851,7.6017941 8.6194304,7.5695362 8.4612277,7.5017347 8.303025,7.4339331 8.0899353,7.3233525 8.0899353,7.3233525 c 0,0 -0.369679,-0.1210733 -0.6118265,-0.3301277 C 7.3772141,6.9068609 7.3877067,6.8180722 7.5346054,6.8124216 7.6815088,6.8068024 8.1270591,6.8108025 8.3821211,6.6259683 8.6500978,6.4314433 8.6500978,6.2579043 8.6363765,6.17961 8.6161951,6.067415 8.4967381,6.0222142 8.4967381,6.0222142 c 0,0 -1.0234761,-0.3228632 -1.0460766,-0.3511137 C 7.428061,5.6428504 7.2642077,5.4563965 7.2472578,5.4394461 7.230305,5.4224962 6.9421517,5.3151438 7.0043026,5.2303923 7.0664564,5.1456408 7.3933526,5.1432188 7.580614,4.947887 7.7993534,4.7194613 7.7388167,4.5128289 7.6653684,4.4337274 7.5919191,4.3546255 7.4595427,4.3134609 7.4595427,4.3134609 c 0,0 -0.2486048,0.073451 -0.3333563,0.033901 -0.084754,-0.039551 -0.4883303,-0.4269868 -0.4883303,-0.4269868 0,0 -0.3430423,-0.1912964 -0.3390069,-0.2494118 0.00562,-0.079102 0.3519214,0.00242 0.6384623,-0.090402 C 7.1947946,3.4974241 7.1851087,3.3198492 7.1689655,3.2528551 7.1439582,3.1479209 7.0511351,3.1043343 6.9889842,3.0591335 6.9260256,3.0147398 5.3601389,2.4553793 5.3601389,2.4553793 Z"
     fill="#0a7c1f"
     id="path2"
     style="stroke-width:0.0807158" />
  <path
     d="m 4.7854427,1.4270601 c 0,0 -0.2219679,0.4616944 -0.5989109,0.8814165 -0.598911,0.6667125 -1.1808721,0.8362156 -1.1808721,0.8362156 0,0 0.073449,0.214704 0.4633088,0.2034039 0.4407083,-0.012915 1.0170188,-0.3277062 1.0170188,-0.3277062 0,0 0.1695029,0.4068076 0.3785573,0.6441121 0.2510258,0.2849267 0.5464459,0.4923663 0.8418652,0.3390063 0.1113882,-0.058116 0.1339888,-0.3002628 0,-0.4689588 -0.32932,-0.4148792 -0.117038,-0.3842071 -0.093631,-0.363221 0,0 0.2574831,0.199368 0.7312845,0.1937179 0.4738024,-0.00565 0.6441121,-0.3051057 0.6441121,-0.3051057 0,0 -0.5876107,-0.3277062 -0.9718177,-0.7740645 C 5.6321518,1.8395179 5.3157455,1.4553107 5.3157455,1.4553107 Z"
     fill="#02ab48"
     id="path3"
     style="stroke-width:0.0807158" />
  <path
     d="M 4.5424886,3.8557984 C 4.5416809,3.8566055 4.2680546,4.032566 3.9605275,4.0083512 3.8273463,3.9978582 3.7329089,3.8985778 3.7329089,3.8985778 c 0,0 -0.3051061,0.179189 -0.4560439,0.2566762 -0.1864538,0.096052 -0.4253727,0.1912964 -0.5512889,0.2825053 -0.062154,0.045201 -0.1493244,0.1412526 -0.1493244,0.1412526 0,0 0.045201,0.2090539 0.4407083,0.2090539 0.3955072,0 0.6610619,-0.050851 0.904017,0.01695 0.2429542,0.067802 0.6215116,0.4463583 0.8870663,0.4463583 0.2655547,0 0.4520085,-0.3559566 0.706263,-0.3559566 0.2542544,0 0.322056,0.1299524 0.7119136,0.1695031 0.3898576,0.03955 1.0057185,-0.1864534 1.1469712,-0.322056 0.1912969,-0.1840321 0.087173,-0.429408 0.087173,-0.429408 0,0 -0.2477981,-0.09928 -0.4705737,-0.2074397 C 6.7968807,4.0123862 6.6394847,3.9235993 6.6394847,3.9235993 c 0,0 -0.090402,0.1017019 -0.1921035,0.096052 C 6.3456788,4.0140034 6.1995831,3.9558858 6.0809308,4.046287 5.9622795,4.1366891 5.8912493,4.2787484 5.6563657,4.3134563 5.0792486,4.3982078 4.5424886,3.8557977 4.5424886,3.8557984 Z"
     fill="#02ab48"
     id="path4"
     style="stroke-width:0.0807158" />
  <path
     d="m 1.8820956,5.9067868 c 0,0 -0.082326,0.2744336 0.2970345,0.444744 0.379364,0.1703103 1.0920843,0.019372 1.1251774,0.052465 0.033096,0.033093 -0.584382,0.3672572 -0.2615184,0.6408836 0.3858213,0.3268989 1.3802396,-0.6473409 1.4456192,-0.6473409 0.065382,0 0.098474,0.8047369 0.4972096,0.9484107 C 5.3843537,7.4896239 5.7766323,6.9012056 6.0187798,6.8293687 6.2609273,6.7575289 6.4376952,6.9730425 6.750872,6.985957 7.1641368,7.0029098 7.3659272,6.8947454 7.3917554,6.7244377 7.4175846,6.5541272 7.0519418,6.2474071 7.130237,6.1820273 7.208534,6.1166477 7.3457477,6.3587949 7.8954223,6.3192441 8.4450969,6.2796937 8.4999839,6.02221 8.4999839,6.02221 L 7.2440463,5.4402494 c 0,0 -0.1727326,0.2058253 -0.4471656,0.2122826 C 6.5224467,5.6589893 5.8290983,5.5411442 5.5546643,5.6194389 5.2802304,5.6977331 5.1946722,6.0117177 4.7370131,5.9923459 4.2793549,5.972974 3.9718277,5.6654469 3.6578433,5.8155783 3.3438589,5.9657096 3.1138184,6.1578132 2.9394724,6.0504612 2.8393854,5.9883103 2.8498799,5.8995227 2.8587563,5.7614986 2.8652326,5.6565681 2.9055669,5.5459875 2.9055669,5.5459875 Z"
     fill="#02ab48"
     id="path5"
     style="stroke-width:0.0807158" />
  <path
     d="m 1.2315263,7.6631622 c 0,0 0.1759602,0.4810664 1.0339696,0.4810664 0.7328989,0 0.9903829,-0.4068075 1.1292137,-0.5230388 C 3.5327338,7.5049595 3.6328209,7.3419138 3.6772152,7.4137507 3.7216067,7.4855905 3.234085,8.011855 3.0347175,8.2055729 2.9233292,8.3137316 2.7853051,8.5211716 2.9959738,8.6543528 3.2066415,8.787533 3.6990081,8.7261925 4.097744,8.5550724 4.4964799,8.3839541 4.6127111,8.028805 4.6127111,8.028805 c 0,0 -0.2986488,-0.1162303 -0.3543424,-0.4762234 C 4.2026721,7.1925894 4.1865289,7.0400364 4.0703005,7.0238932 3.9540702,7.0069404 3.1259263,7.6825341 2.6133811,7.4637948 2.3696193,7.3596714 2.4963432,7.0876584 2.4963432,7.0876584 c 0,0 -0.2348836,0.1856472 -0.5504823,0.3059128 -0.2413399,0.091212 -0.7143346,0.269591 -0.7143346,0.269591 z"
     fill="#02ab48"
     id="path6"
     style="stroke-width:0.0807158" />
  <path
     d="m 4.7741425,8.0562485 c 0,0 -0.1033157,0.3228627 -0.082335,0.4019645 0.039553,0.1509387 0.1872612,0.3067204 0.5585536,0.2784693 C 5.6216535,8.7092436 5.8258649,8.570408 5.8210219,8.448527 5.8161647,8.3266461 5.5772601,8.0223477 5.6934904,7.9448602 5.8097217,7.8673727 5.8928588,8.0441406 6.0090891,8.2330164 6.1253204,8.4218912 6.6289863,9.0304881 7.1609034,8.7423329 7.6476204,8.4783915 6.9946291,7.9561604 7.1278074,7.8730233 7.2609886,7.789888 7.5765873,8.0828843 8.0576536,8.0610914 8.9100124,8.0223477 9.0262427,7.6018179 9.0262427,7.6018179 c 0,0 -0.326899,-0.083135 -0.5149662,-0.1331802 C 8.3232084,7.4185889 8.0899401,7.3241563 8.0899401,7.3241563 c 0,0 -0.381786,0.1945245 -0.9128963,0.1775746 C 6.6459343,7.4847781 6.329528,7.274919 6.102717,7.3136627 5.8759051,7.3524065 5.7039811,7.6728482 5.4214755,7.8560733 5.0283893,8.1111354 4.7741349,8.0562485 4.7741349,8.0562485 Z"
     fill="#02ab48"
     id="path7"
     style="stroke-width:0.0807158" />
  <path
     d="M 5.2342226,2.2971764 C 4.9468741,2.3012146 4.8193435,2.4981587 4.8225722,2.7354631 4.8258103,2.9727676 4.9961114,3.1333921 5.2640871,3.1301634 5.5320638,3.1269348 5.6717023,2.9429028 5.6620163,2.6854194 5.6539209,2.4610295 5.4949344,2.2939478 5.2342226,2.2971764 Z"
     fill="#ff5f5e"
     id="path11"
     style="fill:#df0e2b;fill-opacity:1;stroke-width:0.0807158" />
  <path
     d="M 6.3416435,3.8977706 C 6.0542949,3.9018088 5.887213,4.1148961 5.8904416,4.3522005 5.8936798,4.589505 6.0744745,4.7735369 6.3618221,4.7703084 6.6564346,4.7670797 6.803338,4.5564115 6.7928444,4.2989282 6.784749,4.0753454 6.6023552,3.8945419 6.3416435,3.8977706 Z"
     fill="#fcd81e"
     id="path12"
     style="fill:#df0e2b;fill-opacity:1;stroke-width:0.0807158" />
  <path
     d="M 4.4117284,3.9809078 C 4.1106586,3.984946 3.9500339,4.1931904 3.9532626,4.4458309 3.9565007,4.6984713 4.1582806,4.8776604 4.4383652,4.8736246 4.7184488,4.8703959 4.8734229,4.6694136 4.8629303,4.3957871 4.8540729,4.1568683 4.684548,3.9776792 4.4117284,3.9809078 Z"
     fill="#df0e2b"
     id="path13"
     style="stroke-width:0.0807158" />
  <path
     d="m 3.6166776,5.509665 c -0.3042984,0.00323 -0.4544295,0.2276186 -0.4512009,0.4915592 0.004,0.2639407 0.1880682,0.4382868 0.484295,0.434251 C 3.9459986,6.431437 4.1017803,6.2272285 4.0912867,5.9406874 4.0816008,5.6920827 3.9056405,5.5064364 3.6166776,5.509665 Z"
     fill="#ffd2b1"
     id="path14"
     style="fill:#df0e2b;fill-opacity:1;stroke-width:0.0807158" />
  <path
     d="m 5.3141312,5.9689379 c -0.3196341,0.00404 -0.4608869,0.2227755 -0.4568516,0.4867162 0.004,0.2639406 0.1929112,0.4423228 0.4899447,0.4382865 0.2970345,-0.004 0.4528162,-0.2082467 0.4423226,-0.4939803 C 5.779861,6.1513556 5.6039007,5.9657093 5.3141312,5.9689379 Z"
     fill="#fcd81e"
     id="path15"
     style="fill:#df0e2b;fill-opacity:1;stroke-width:0.0807158" />
  <path
     d="M 6.8477314,5.5128936 C 6.5256754,5.5169336 6.3682793,5.7405122 6.371508,6.0076815 6.375508,6.2748508 6.5628048,6.4726044 6.863067,6.4693758 7.1625225,6.4653376 7.3384837,6.2401429 7.3271834,5.9503733 7.3183261,5.6977328 7.1407296,5.509665 6.8477314,5.5128936 Z"
     fill="#ff5f5d"
     id="path16"
     style="fill:#df0e2b;fill-opacity:1;stroke-width:0.0807158" />
  <path
     d="M 7.013199,7.7890794 C 7.0277232,7.4944659 6.853381,7.3394919 6.6112345,7.324963 6.369087,7.3104388 6.1858618,7.4581441 6.1689119,7.7317705 6.1519591,8.0053978 6.3174286,8.188622 6.5805623,8.1975012 6.8097953,8.2056012 6.9994768,8.0707774 7.013199,7.7890794 Z"
     fill="#c9c9c9"
     id="path17"
     style="fill:#df0e2b;fill-opacity:1;stroke-width:0.0807158" />
  <path
     d="m 3.7490521,7.3524065 c -0.2994555,0.004 -0.43183,0.2058257 -0.4286013,0.4487799 0.00324,0.2429542 0.1808042,0.4076151 0.4592735,0.4043865 C 4.0581936,8.2023347 4.2042893,8.0134694 4.1937957,7.7503357 4.1857003,7.5194884 4.0210641,7.3483711 3.7490521,7.3524065 Z"
     fill="#ff5f5e"
     id="path18"
     style="fill:#df0e2b;fill-opacity:1;stroke-width:0.0807158" />
  <path
     d="m 3.4665465,7.7931148 c 0.087174,0.04682 0.1202666,-0.079907 0.1638533,-0.1234953 0.043582,-0.043591 0.1469025,-0.1170379 0.096859,-0.1808032 -0.050039,-0.063763 -0.1775746,-0.027439 -0.2373036,0.040353 -0.080716,0.090402 -0.09444,0.2260043 -0.02341,0.2639404 z"
     fill="#f9ffff"
     id="path19"
     style="stroke-width:0.0807158" />
  <path
     d="M 6.3287289,7.7802002 C 6.4159019,7.8270202 6.4530308,7.6994842 6.4893536,7.649441 6.5361646,7.585678 6.6499773,7.5420889 6.5999342,7.4791303 6.5498852,7.4153673 6.428816,7.4557203 6.369087,7.5227123 6.288371,7.6131143 6.2576987,7.7414517 6.328734,7.7801954 Z"
     fill="#f9ffff"
     id="path20"
     style="stroke-width:0.0807158" />
  <path
     d="M 6.5506969,5.9842739 C 6.6467486,6.0335103 6.6830714,5.8946794 6.7298858,5.8373712 6.7718582,5.7865205 6.8945467,5.7316335 6.8388521,5.6646393 6.7831556,5.5976454 6.6523992,5.6331605 6.586212,5.7033831 6.497429,5.7986278 6.4724027,5.9439162 6.5506969,5.9842739 Z"
     fill="#f9ffff"
     id="path21"
     style="stroke-width:0.0807158" />
  <path
     d="M 5.0316256,6.4459683 C 5.118799,6.4927836 5.1518922,6.3660598 5.1954789,6.322473 5.2390609,6.2788863 5.3423813,6.1820276 5.2923383,6.1182621 5.2422895,6.0544968 5.118799,6.0948549 5.0550337,6.1820274 c -0.07103,0.097666 -0.09444,0.2260042 -0.02341,0.2639407 z"
     fill="#f9ffff"
     id="path22"
     style="stroke-width:0.0807158" />
  <path
     d="m 3.32933,5.9875025 c 0.087174,0.046815 0.1420595,-0.085559 0.1799956,-0.1339882 0.073449,-0.093631 0.1436748,-0.1436741 0.093631,-0.2074396 -0.050039,-0.063765 -0.1840319,-0.00969 -0.2502192,0.07668 -0.07264,0.096859 -0.093631,0.2268114 -0.02341,0.2647478 z"
     fill="#f9ffff"
     id="path23"
     style="stroke-width:0.0807158" />
  <path
     d="m 4.1276094,4.4426022 c 0.087174,0.046815 0.1291449,-0.073451 0.1638524,-0.1234951 0.053277,-0.07668 0.1533607,-0.1404455 0.1033167,-0.204211 -0.050039,-0.063765 -0.1703106,-0.029865 -0.2437619,0.063765 -0.074259,0.094437 -0.09444,0.2251971 -0.02341,0.2639406 z"
     fill="#f9ffff"
     id="path24"
     style="stroke-width:0.0807158" />
  <path
     d="M 6.0728601,4.4014372 C 6.1681041,4.4530952 6.204426,4.3134572 6.252049,4.2658346 6.299669,4.2182126 6.4134804,4.1374965 6.3585934,4.0680809 6.3037064,3.9986649 6.1640689,4.0382169 6.0986883,4.1116679 6.0099053,4.2109479 5.994565,4.3602726 6.0728601,4.4014372 Z"
     fill="#f9ffff"
     id="path25"
     style="stroke-width:0.0807158" />
  <path
     d="m 4.9468741,2.7281988 c 0.087173,0.046815 0.1202666,-0.079908 0.1638533,-0.1234952 0.043582,-0.043587 0.1469025,-0.1170379 0.096859,-0.1808034 -0.050049,-0.063765 -0.1509387,-0.029864 -0.22439,0.056501 -0.077487,0.092823 -0.107352,0.2098611 -0.036325,0.2477976 z"
     fill="#f9ffff"
     id="path26"
     style="stroke-width:0.0807158" />
  <g
     id="g45"
     transform="matrix(1.1428835,-3.6482546e-8,3.6482546e-8,1.1428835,5.4377428,-1.8286135)">
    <path
       d="M -0.265976,1.6334847 -0.0864998,2.04284 a 0.09396502,0.09396502 0 0 0 0.077604,0.05587 l 0.4372234,0.039202 c 0.049469,0.0072 0.069204,0.06787 0.033335,0.1028055 L 0.132312,2.5173986 C 0.105644,2.5397996 0.09351,2.5750016 0.100844,2.6090036 l 0.095738,0.4481573 c 0.0084,0.049203 -0.043202,0.086805 -0.087471,0.06347 L -0.2725097,2.8971522 a 0.09377834,0.09377834 0 0 0 -0.094938,0 l -0.3816208,0.2233453 c -0.044136,0.023201 -0.095872,-0.014267 -0.087471,-0.06347 l 0.095738,-0.4481572 c 0.0072,-0.034002 -0.0048,-0.069204 -0.031468,-0.091605 L -1.101754,2.2408506 c -0.035735,-0.034802 -0.016001,-0.095605 0.033335,-0.1028055 l 0.4372233,-0.039202 a 0.09396502,0.09396502 0 0 0 0.077604,-0.05587 l 0.1794764,-0.409355 c 0.022268,-0.044802 0.086005,-0.044802 0.1081393,-1.334e-4 z"
       fill="#fdd835"
       id="path1-7"
       style="stroke-width:0.013334" />
    <path
       d="M -0.2790434,2.0673749 -0.309445,1.7657588 c -0.0012,-0.016801 -0.00467,-0.045602 0.022268,-0.045602 0.021335,0 0.032935,0.044402 0.032935,0.044402 l 0.091205,0.2421463 c 0.034402,0.092138 0.020268,0.1237399 -0.012934,0.1424076 -0.038135,0.021334 -0.094405,0.00467 -0.1030724,-0.081738 z"
       fill="#ffff8d"
       id="path2-8"
       style="stroke-width:0.013334" />
    <path
       d="M 0.09711,2.4905975 0.358724,2.2864532 c 0.012934,-0.010801 0.036269,-0.028001 0.017601,-0.047602 -0.014801,-0.015467 -0.054803,0.0068 -0.054803,0.0068 l -0.2289456,0.089472 c -0.06827,0.023601 -0.113606,0.058536 -0.1176062,0.1025388 -0.0052,0.05867 0.047469,0.1038722 0.1221398,0.052935 z"
       fill="#f4b400"
       id="path3-8"
       style="stroke-width:0.013334" />
  </g>
</svg>
